<?xml version="1.0" encoding="utf-8"?>
<!-- Generator: Adobe Illustrator 26.3.1, SVG Export Plug-In . SVG Version: 6.00 Build 0)  -->
<svg version="1.1" id="Calque_1" xmlns="http://www.w3.org/2000/svg" xmlns:xlink="http://www.w3.org/1999/xlink" x="0px" y="0px"
	 viewBox="0 0 512 512" style="enable-background:new 0 0 512 512;" xml:space="preserve">
<g>
	<path d="M399.3,439c-87.1,0-174.3,0-261.4,0c-8.2-2.9-11.5-8.8-10.8-17.3c0.1-1.3-0.1-2.6,0-3.9c0.1-1.7-0.5-2.4-2.2-2.3
		c-1.4,0.1-2.8,0-4.3-0.1c-12.2-1.3-19.2-14.2-13.2-24.8c3.4-6.1,8.7-8.9,15.6-8.6c3.6,0.2,4.4-1.1,4.2-4.4
		c-0.3-4.4-0.1-8.8-0.1-13.2c0-5.6,0-5.6-5.5-5.8c-12.8-0.5-20.4-13.8-14.1-24.9c3.5-6.3,9.2-9,16.3-8.6c2.6,0.1,3.5-0.6,3.4-3.3
		c-0.2-4.1-0.1-8.3-0.1-12.4c0-6.9,0-6.9-6.8-7.6c-12.6-1.3-19.3-15.3-12.3-25.9c3.8-5.6,9.3-7.8,15.9-7.6c2.5,0.1,3.3-0.7,3.2-3.2
		c-0.2-4.7-0.1-9.5-0.1-14.2c0-5.3,0-5.3-5.3-5.7c-8.6-0.6-15-6.1-16.4-14.2c-1.3-7.3,2.9-14.9,9.8-18c3-1.3,6.2-1.5,9.4-1.5
		c1.8,0,2.6-0.5,2.5-2.4c-0.1-6.2-0.1-12.3,0-18.5c0-1.7-0.6-2.3-2.3-2.2c-1.4,0.1-2.8,0-4.3-0.1c-11.8-1-18.9-13.7-13.5-24.2
		c3.4-6.7,9.2-9.6,16.6-9.2c2.6,0.1,3.6-0.6,3.4-3.3c-0.2-5-0.1-10-0.1-14.9c0-4.9,0-4.9-4.8-5c-9.8-0.3-17.1-7.5-17-16.8
		c0-9.1,7.3-16.4,16.8-16.8c5.1-0.2,5.4-0.2,5-5.5c-0.6-8.7,2.3-15,10.9-18.1c87.1,0,174.3,0,261.4,0c8.3,3.3,10.7,9.7,10.7,18.3
		c-0.2,109.3-0.2,218.6,0,327.8C410,429.3,407.7,435.7,399.3,439z M137.9,256.8c0,55.2,0,110.3,0,165.5c0,5.7,0.3,6,6.1,6
		c83,0,166,0,249,0c5.7,0,6.2-0.5,6.2-6.3c0-110.1,0-220.2,0-330.2c0-5.9-0.5-6.3-6.2-6.3c-83,0-166,0-249,0c-5.8,0-6.1,0.3-6.1,6
		C137.9,146.5,137.9,201.6,137.9,256.8z M127.1,114.9c0-6.4-1-7.3-6.5-5.7c-3.1,0.9-5,3.7-4.4,6.7c0.7,3.7,3.8,5.5,8.9,4.9
		c3.8-0.4,1.3-3.5,2-5.2C127.2,115.4,127.1,115.2,127.1,114.9z M127.1,171.9c0-1.4,0-2.8,0-4.3c0-1-0.1-1.9-1.5-1.9
		c-1.9,0-3.8-0.3-5.6,0.4c-2.8,1.1-4.4,3.9-3.8,6.8c0.9,3.7,4.3,5.6,9,4.8c3.5-0.6,1.1-3.5,1.8-5.1
		C127.2,172.4,127.1,172.1,127.1,171.9z M127.1,341.7c-0.5-1.5,1.1-4.4-0.8-5.5c-1.9-1.1-4.6-0.6-6.9,0.4c-2.7,1.2-4,4.3-3.1,7.1
		c1.1,3.3,4.8,5.1,9.1,4.1c3-0.7,1-3.3,1.6-5C127.2,342.7,127.1,342.4,127.1,341.7z M127.1,399c-0.1-6.8,0.7-6.2-3.5-6.2
		c-4.7,0-7.6,2.3-7.6,6c0.1,3.7,3,5.8,7.7,6C129.5,405.1,126.1,400.7,127.1,399z M127.1,228.8c0-6.3,0-6.3-3.4-6.3
		c-4.8,0-7.6,2.2-7.6,5.9c0,3.8,3,6,8,6.1C129.4,234.7,126.1,230.5,127.1,228.8z M127.1,285.7c-0.1-7,0.7-6.5-3.2-6.6
		c-5-0.1-7.9,2.3-7.9,6.1c0,3.7,2.9,5.6,7.7,6C129.1,291.5,126.4,287.6,127.1,285.7z"/>
	<path d="M268.4,253.5c-27.7,0-55.4,0-83.1,0c-8.8,0-11.4-2.6-11.4-11.5c0-2.3,0-4.5,0-6.8c0.1-6.4,3.3-9.7,9.7-9.6
		c3.2,0.1,4-1,4.3-4c4.3-35.1,27.3-61.5,61.2-70.3c2.4-0.6,3.4-1.4,2.8-4.1c-0.5-2.3-0.6-4.7-0.7-7.1c-0.3-6.8,4.2-12,11-12.3
		c4.1-0.2,8.3-0.2,12.4,0c6.6,0.3,11.1,5.2,11,11.9c0,2.5-0.3,5-0.7,7.4c-0.4,2.5,0.3,3.5,2.8,4.1c20.8,5.1,37,16.9,48.7,34.8
		c7.1,10.9,11.4,22.8,12.4,35.9c0.2,2.6,0.8,3.7,3.7,3.6c7.1-0.1,10.4,3.3,10.4,10.4c0,3.4,0.4,6.9-0.3,10.3c-0.9,4.3-3.4,6.6-7.7,7
		c-1.4,0.1-2.8,0.1-4.3,0.1C323.3,253.5,295.9,253.5,268.4,253.5z M268.1,242.7c26.9,0,53.7,0,80.6,0.1c2.7,0,3.6-0.7,3.6-3.5
		c0-3.3-1.9-2.9-3.9-2.9c-38,0-76,0-114,0c-4.9,0-7.2-1.8-7.2-5.4c0-3.5,2.5-5.4,7.2-5.4c0.7,0,1.4,0,2.1,0c32.4,0,64.9,0,97.3,0
		c4.7,0,4.7,0,4.2-4.6c-4.8-39.8-44.2-68.2-83.3-60c-28.8,6-50.4,28.3-55.6,57.3c-1.3,7.2-1.3,7.2,5.9,7.3c0.4,0,0.7,0,1.1,0
		c4.2,0.1,6.5,2.1,6.5,5.4c0,3.4-2.2,5.3-6.5,5.4c-5.7,0.1-11.4,0-17,0c-2.3,0-4.6-0.7-4.5,3.3c0,3.9,2.2,3.1,4.4,3.1
		C215.3,242.7,241.7,242.7,268.1,242.7z M268.7,138.6c-1.6,0-3.3,0-4.9,0c-0.9,0-1.7,0.3-1.6,1.4c0.3,2.8,0,5.9,1.1,8.3
		c0.8,1.8,3.6,0.2,5.6,0.5c0.3,0.1,0.7,0,1.1,0.1c3.3,0.7,4.5-0.5,4.6-4C274.6,138.6,274.9,138.6,268.7,138.6z"/>
	<path d="M268.3,303.3c-28.3,0-56.6,0-84.9,0c-1.2,0-2.4,0-3.5,0c-3.7-0.2-5.8-2.1-5.8-5.3c0-3.1,2.1-5.1,5.8-5.4
		c0.9-0.1,1.9,0,2.8,0c57.2,0,114.3,0,171.5,0c1.7,0,3.3-0.1,4.9,0.4c2.6,0.9,3.9,2.8,3.7,5.4c-0.2,2.6-1.6,4.4-4.4,4.8
		c-1.4,0.2-2.8,0.2-4.2,0.2C325.6,303.3,296.9,303.3,268.3,303.3z"/>
	<path d="M240.9,385.8c-19.5,0-39,0-58.6,0c-1.3,0-2.6,0.1-3.9-0.2c-2.7-0.4-4.2-2.1-4.4-4.8c-0.2-2.7,1.1-4.6,3.7-5.4
		c1.3-0.4,2.8-0.4,4.2-0.4c39.2,0,78.3,0,117.5,0c0.5,0,0.9,0,1.4,0c4.1,0.1,6.6,2.2,6.6,5.4c0,3.2-2.4,5.3-6.6,5.4
		C280.9,385.8,260.9,385.8,240.9,385.8z"/>
	<path d="M198.9,334.2c2.6-4.7,4.8-8.9,7.2-13c0.8-1.4,1.7-2.9,2.8-4.1c1.7-1.8,4.1-1.9,6.3-1.1c1.9,0.7,2.3,2.6,2.3,4.4
		c0,12.6,0,25.1,0,37.7c0,3-1.5,4-4.2,4c-2.7,0-4.3-1-4.3-3.9c0-8.1,0-16.3-0.7-24.7c-1.9,3.3-3.8,6.6-5.7,10
		c-0.9,1.6-1.7,3.6-4,3.5c-2.1-0.1-2.8-1.9-3.6-3.5c-1.8-3.4-3.6-6.8-6.3-10c0,4.2,0,8.3,0,12.5c0,3.9-0.1,7.8,0,11.7
		c0.1,3-1.2,4.4-4.2,4.4c-2.9,0-4.2-1.2-4.2-4.3c0.1-12.3,0-24.7,0-37c0-2.2,0.2-4.5,2.8-5.1c2.6-0.6,5.1-0.2,6.5,2.3
		c2.2,3.8,4.3,7.6,6.5,11.4C197.1,331,197.8,332.3,198.9,334.2z"/>
	<path d="M295.8,342c0-7.3,0.1-14.6,0-21.9c0-3,1.2-4.4,4.2-4.4c2.9,0,4.2,1.2,4.2,4.3c-0.1,12.5-0.1,24.9,0,37.4
		c0,2.1,0.2,4.2-2.5,4.7c-2.6,0.5-5,0.1-6.4-2.5c-2.5-4.6-4.9-9.2-7.4-13.8c-1.9-3.5-3.8-7-6.3-10.3c0,7.3,0,14.6,0,21.8
		c0,3.9-0.9,4.9-4.2,5c-3.4,0-4.1-1.9-4.1-4.9c0.1-12.2,0-24.4,0-36.6c0-1.9-0.4-4.1,2.1-4.7c2.6-0.7,5.3-0.7,7,2
		c1.4,2.3,2.7,4.7,3.9,7.1c3,5.7,5.9,11.3,8.8,17C295.3,342.1,295.6,342.1,295.8,342z"/>
	<path d="M318.9,334.6c0-4.9,0.1-9.7,0-14.6c-0.1-3.1,1.3-4.3,4.2-4.3c3,0,4.1,1.5,4.1,4.4c-0.1,8.9-0.1,17.8,0,26.7
		c0.1,6.2,2.7,9,7.8,8.5c4.2-0.4,6.2-2.6,6.2-7.5c0.1-9.1,0-18.3,0-27.4c0-3.9,1.5-5.1,5.2-4.7c2.1,0.3,3.2,1.3,3.2,3.5
		c0,10.1,0.2,20.2-0.2,30.2c-0.4,9-6.3,13.5-15.9,13.3c-9.2-0.3-14.1-5-14.5-14C318.8,344.1,318.9,339.3,318.9,334.6
		C318.9,334.6,318.9,334.6,318.9,334.6z"/>
	<path d="M232.3,338.9c0-6.3,0.1-12.6,0-18.8c-0.1-3,1-4.4,4.1-4.4c7.1,0,14.2,0,21.3,0c2.4,0,3.5,1.2,3.5,3.4
		c0,2.3-0.9,3.9-3.6,3.9c-4.7,0-9.5,0.1-14.2,0c-2.1-0.1-3.1,0.6-2.8,2.8c0,0.2,0,0.5,0,0.7c0.2,2.9-1.2,6.6,0.5,8.7
		c1.7,2,5.3,0.6,8.1,0.7c2.4,0.1,3.6,1.1,3.6,3.4c0,2.1-1.3,3.2-3.5,3.1c-2.1-0.1-4.3,0.1-6.4,0c-1.9-0.1-2.4,0.7-2.5,2.5
		c-0.6,10.4-0.6,10.4,9.7,10.4c2.5,0,5,0,7.5,0c2.4,0,3.4,1.5,3.4,3.6c0,2.1-0.8,3.6-3.3,3.6c-7.3,0-14.7,0-22,0
		c-2.5,0-3.6-1.2-3.6-3.8C232.4,352,232.3,345.5,232.3,338.9z"/>
	<path d="M342.5,385.8c-4.7,0-9.5,0.1-14.2,0c-3.9-0.1-6.3-2.1-6.3-5.2c-0.1-3.3,2.4-5.5,6.4-5.5c9.5-0.1,18.9-0.1,28.4,0
		c3.8,0,6.2,2.3,6.2,5.4c0,3.1-2.4,5.2-6.3,5.3C351.9,385.8,347.2,385.8,342.5,385.8z"/>
</g>
</svg>
